<svg xmlns="http://www.w3.org/2000/svg" viewBox="0 0 317 336" role="img" aria-label="hungtranPM">
  <defs>
    <linearGradient id="logoGradient" x1="0" y1="0" x2="317" y2="336" gradientUnits="userSpaceOnUse">
      <stop offset="0" stop-color="#13D4E6"/>
      <stop offset="0.40" stop-color="#1596FF"/>
      <stop offset="0.70" stop-color="#5142FF"/>
      <stop offset="1" stop-color="#8B2AF6"/>
    </linearGradient>
  </defs>
  <path d="M 27 105 L 21 114 L 17 125 L 17 240 L 24 259 L 40 278 L 63 291 L 71 291 L 73 289 L 74 227 L 78 223 L 120 223 L 125 227 L 126 230 L 126 280 L 132 296 L 138 304 L 149 313 L 166 319 L 178 319 L 181 316 L 181 145 L 210 144 L 211 297 L 213 299 L 225 299 L 234 297 L 245 291 L 255 281 L 259 274 L 261 266 L 261 145 L 273 143 L 280 140 L 294 127 L 300 112 L 300 99 L 297 96 L 147 95 L 140 97 L 130 105 L 126 113 L 126 168 L 121 174 L 78 174 L 74 171 L 73 94 L 71 92 L 55 91 L 42 94 Z M 16 104 L 18 104 L 18 100 L 25 87 L 33 79 L 45 73 L 280 72 L 282 70 L 282 56 L 279 49 L 272 42 L 265 39 L 215 39 L 209 34 L 203 23 L 194 16 L 44 16 L 28 25 L 22 32 L 17 43 Z M 112 37 L 116 37 L 122 43 L 121 49 L 116 53 L 111 53 L 106 48 L 106 42 Z M 85 37 L 91 38 L 95 43 L 94 49 L 89 53 L 83 52 L 79 47 L 80 41 Z M 58 37 L 64 38 L 68 43 L 67 49 L 62 53 L 58 53 L 52 48 L 53 41 Z " fill="url(#logoGradient)" fill-rule="evenodd"/>
</svg>
